<mxfile host="app.diagrams.net" modified="2024-03-12T18:28:04.550Z" agent="Mozilla/5.0 (Macintosh; Intel Mac OS X 10.15; rv:123.0) Gecko/20100101 Firefox/123.0" version="24.0.5" etag="biez2RTs_-9cMUJoijfJ" type="github">
  <diagram name="Page-1" id="WT2zKBnfGBE7YQ1a9_zt">
    <mxGraphModel>
      <root>
        <mxCell id="0" />
        <mxCell id="1" parent="0" />
      </root>
    </mxGraphModel>
  </diagram>
</mxfile>
